<?xml version="1.0" encoding="utf-8"?>
<svg width="800" height="800" viewBox="0 0 800 800" fill="none" xmlns="http://www.w3.org/2000/svg">
  <g>
    <path d="M600 0C525.51 0 460.532 40.7231 426.113 101.121C417.507 100.379 408.798 100 400 100C234.315 100 100 234.315 100 400C100 408.798 100.379 417.507 101.121 426.113C40.7231 460.532 0 525.51 0 600C0 710.457 89.543 800 200 800C274.49 800 339.468 759.277 373.887 698.879C382.493 699.621 391.202 700 400 700C565.685 700 700 565.685 700 400C700 391.202 699.621 382.493 698.879 373.887C759.277 339.468 800 274.49 800 200C800 89.543 710.457 0 600 0ZM600 400C635.967 400 669.717 390.506 698.879 373.887C686.389 229.035 570.965 113.611 426.113 101.121C409.494 130.283 400 164.033 400 200C289.543 200 200 289.543 200 400C164.033 400 130.283 409.494 101.121 426.113C113.611 570.965 229.035 686.389 373.887 698.879C390.506 669.717 400 635.967 400 600C510.457 600 600 510.457 600 400ZM600 400C489.543 400 400 310.457 400 200C510.457 200 600 289.543 600 400ZM400 600C400 489.543 310.457 400 200 400C200 510.457 289.543 600 400 600Z" fill="#FFFFFF" fill-rule="evenodd" />
  </g>
</svg>