<?xml version="1.0" encoding="utf-8"?>
<svg width="300" height="300" viewBox="0 0 300 300" fill="none" xmlns="http://www.w3.org/2000/svg">
  <defs>
    <filter color-interpolation-filters="sRGB" x="-187.242" y="-212.558" width="189.242" height="214.558" id="filter_1">
      <feFlood flood-opacity="0" result="BackgroundImageFix_1" />
      <feBlend mode="normal" in="SourceGraphic" in2="BackgroundImageFix_1" result="Shape_2" />
      <feColorMatrix type="matrix" values="0 0 0 0 0 0 0 0 0 0 0 0 0 0 0 0 0 0 1 0" in="SourceAlpha" result="HardAlpha_3" />
      <feOffset dx="0" dy="-10" />
      <feGaussianBlur stdDeviation="5" />
      <feComposite operator="arithmetic" k2="-1" k3="1" in2="HardAlpha_3" />
      <feColorMatrix type="matrix" values="0 0 0 0 0 0 0 0 0 0 0 0 0 0 0 0 0 0 0.102 0" />
      <feBlend mode="normal" in2="Shape_2" result="InnerShadow_4" />
    </filter>
  </defs>
  <g>
    <g transform="translate(55 18)">
      <path d="M186.004 23.2505L93.0021 0L3.57628e-07 23.2505Q0.342716 24.0475 0.75347 24.8116Q1.16422 25.5758 1.6399 26.3013Q2.11558 27.0268 2.65257 27.7082Q3.18956 28.3896 3.7838 29.0217Q4.37803 29.6538 5.025 30.2318Q5.67198 30.8098 6.36678 31.3293Q7.06159 31.8488 7.79895 32.3059Q8.53632 32.763 9.31066 33.1542L84.0999 70.5488L84.1587 70.5781Q84.6719 70.8326 85.1989 71.0572Q85.726 71.2818 86.265 71.4756Q86.8041 71.6695 87.3534 71.8321Q87.9027 71.9947 88.4605 72.1254Q89.0182 72.2561 89.5826 72.3545Q90.147 72.4529 90.716 72.5187Q91.2851 72.5845 91.857 72.6174Q92.429 72.6504 93.0018 72.6504Q93.5747 72.6504 94.1466 72.6175Q94.7186 72.5845 95.2876 72.5188Q95.8567 72.453 96.4211 72.3546Q96.9854 72.2562 97.5432 72.1255Q98.101 71.9948 98.6503 71.8323Q99.1996 71.6698 99.7387 71.4759Q100.278 71.282 100.805 71.0575Q101.332 70.8329 101.845 70.5784L101.904 70.5487L176.619 33.1913L176.666 33.1679Q177.443 32.7771 178.182 32.3199Q178.922 31.8628 179.619 31.343Q180.316 30.8231 180.965 30.2445Q181.614 29.6658 182.21 29.0328Q182.806 28.3998 183.345 27.7172Q183.883 27.0346 184.36 26.3077Q184.837 25.5807 185.249 24.815Q185.661 24.0492 186.004 23.2505Z" fill="#FFD8A8" fill-rule="evenodd" transform="translate(1.619 191.307)" />
      <path d="M113.104 12.5133Q112.966 12.1695 112.816 11.831Q112.666 11.4926 112.503 11.16Q112.34 10.8274 112.166 10.5011Q111.991 10.1747 111.804 9.85513Q111.617 9.53553 111.418 9.22311Q111.219 8.91068 111.009 8.60586Q110.799 8.30104 110.577 8.00425Q110.356 7.70746 110.124 7.4191Q109.892 7.13075 109.649 6.85123Q109.406 6.57171 109.153 6.30142Q108.9 6.03112 108.637 5.77043Q108.374 5.50973 108.101 5.25899Q107.829 5.00825 107.547 4.76782Q107.266 4.52739 106.976 4.29759Q106.685 4.0678 106.387 3.84896Q106.088 3.63012 105.781 3.42254Q105.475 3.21496 105.161 3.01892Q104.846 2.82289 104.525 2.63867Q104.204 2.45445 103.876 2.2823Q103.548 2.11015 103.214 1.95032Q102.88 1.79048 102.541 1.64317Q102.201 1.49587 101.856 1.36129Q101.511 1.22672 101.161 1.10507Q100.812 0.983421 100.458 0.874859Q100.104 0.766297 99.746 0.670975Q99.3882 0.575653 99.0271 0.493701Q98.666 0.41175 98.3022 0.343284Q97.9383 0.274817 97.5721 0.21993Q97.2059 0.165042 96.838 0.12381Q96.47 0.0825783 96.1008 0.0550586Q95.7315 0.0275388 95.3615 0.0137694Q94.9915 0 94.6213 0Q94.251 0 93.881 0.0137694Q93.511 0.0275388 93.1417 0.0550585Q92.7725 0.0825783 92.4045 0.12381Q92.0366 0.165042 91.6704 0.21993Q91.3042 0.274817 90.9403 0.343283Q90.5765 0.41175 90.2154 0.493701Q89.8543 0.575652 89.4965 0.670974Q89.1387 0.766297 88.7847 0.874859Q88.4307 0.98342 88.081 1.10507Q87.7313 1.22672 87.3864 1.36129Q87.0414 1.49587 86.7017 1.64317Q86.362 1.79048 86.028 1.95032Q85.694 2.11015 85.3662 2.2823Q85.0384 2.45445 84.7172 2.63867Q84.3961 2.82288 84.0819 3.01892Q83.7678 3.21495 83.4612 3.42254Q83.1546 3.63012 82.8559 3.84896Q82.5573 4.0678 82.267 4.29759Q81.9766 4.52739 81.695 4.76782Q81.4135 5.00825 81.141 5.25899Q80.8686 5.50973 80.6056 5.77042Q80.3427 6.03112 80.0897 6.30141Q79.8366 6.57171 79.5938 6.85122Q79.3509 7.13074 79.1187 7.4191Q78.8864 7.70745 78.665 8.00424Q78.4436 8.30104 78.2335 8.60586Q78.0233 8.91068 77.8245 9.2231Q77.6258 9.53553 77.4389 9.85513Q77.2519 10.1747 77.077 10.5011Q76.9021 10.8274 76.7394 11.16Q76.5767 11.4926 76.4265 11.831Q76.2763 12.1695 76.1388 12.5133L1.42376 199.301Q1.24199 199.755 1.08277 200.218Q0.923552 200.681 0.78727 201.151Q0.650989 201.621 0.537973 202.097Q0.424957 202.573 0.335481 203.055Q0.246004 203.536 0.180283 204.021Q0.114562 204.506 0.0727549 204.993Q0.0309481 205.481 0.0131565 205.97Q-0.00463505 206.459 0.00163168 206.949Q0.00789841 207.438 0.0382083 207.927Q0.0685182 208.415 0.122798 208.901Q0.177078 209.388 0.255196 209.871Q0.333315 210.354 0.435083 210.833Q0.536852 211.312 0.662024 211.785Q0.787196 212.258 0.93547 212.724Q1.08374 213.191 1.25476 213.649Q1.42578 214.108 1.61913 214.558L94.6213 191.307L187.623 214.558Q187.817 214.108 187.988 213.649Q188.159 213.191 188.307 212.724Q188.455 212.258 188.58 211.785Q188.706 211.312 188.807 210.833Q188.909 210.354 188.987 209.871Q189.065 209.388 189.12 208.901Q189.174 208.415 189.204 207.926Q189.235 207.438 189.241 206.949Q189.247 206.459 189.229 205.97Q189.212 205.481 189.17 204.993Q189.128 204.506 189.062 204.021Q188.996 203.536 188.907 203.055Q188.817 202.573 188.704 202.097Q188.591 201.621 188.455 201.151Q188.319 200.681 188.16 200.218Q188 199.755 187.819 199.301L113.104 12.5133Z" fill="#D9480F" fill-rule="evenodd" filter="url(#filter_1)" />
    </g>
  </g>
</svg>